<svg xmlns="http://www.w3.org/2000/svg" xmlns:xlink="http://www.w3.org/1999/xlink" viewBox="0 0 281.4 141"><defs><clipPath id="a" transform="translate(-3.3 -1.4)"><ellipse cx="144" cy="72" rx="140" ry="69.8" style="fill:#fde76b"/></clipPath></defs><title>Burnac-logo-01</title><ellipse cx="140.7" cy="70.6" rx="140" ry="69.8" style="fill:#fde76b"/><g style="clip-path:url(#a)"><path d="M205.3,135.5s18.6-22.4,50.9-45l-51.6,35.4s17.8-25.9,60.2-71.4c0,0-32.4,34.7-68.9,60.2,0,0,8.3-18.5,35.8-52.4-12.3,13.7-16,19-40.8,46.6,0,0-3.3-3.8,41.1-86.6,0,0-37.5,64.2-55.3,81.5,0,0,3.1-14.6,24.5-66,0,0-10.6,24.4-29.7,64.2,0,0,2.9-41.4,17.6-95.5,0,0-16.8,63.1-31.3,90.9,0,0,3.1-46.3,6.4-69.9,0,0-9.5,65.6-12.9,70.4,0,0-6.9-3.6-7.3-93.9-0.4,90.3-7.3,93.9-7.3,93.9-3.4-4.7-12.9-70.4-12.9-70.4,3.9,29.3,6.4,69.9,6.4,69.9C115.6,69.7,98.8,6.6,98.8,6.6c14.7,54.1,17.6,95.5,17.6,95.5C95.9,64,85.8,38.6,85.8,38.6c6.6,16.1,25.4,65.3,25.4,65.3C93.3,86.6,55.9,22.4,55.9,22.4,100.2,105.2,96.9,109,96.9,109,72.2,81.3,68.4,76.1,56.2,62.4,83.7,96.2,92,114.7,92,114.7A411.6,411.6,0,0,1,30.3,61.5c42.4,45.5,53,64.3,53,64.3L31.8,90.5c32.2,22.6,50.9,45,50.9,45S141.3,150.2,205.3,135.5Z" transform="translate(-3.3 -1.4)" style="fill:#fff9e9"/></g><path d="M90,113.7v2.9a3.2,3.2,0,0,0,.1,1.1l0.4,0.3h1v0.3H86.2v-0.3h1l0.4-.3a3.2,3.2,0,0,0,.1-1.1v-6.7a3.2,3.2,0,0,0-.1-1.1l-0.4-.3h-1V108h4.5a5.1,5.1,0,0,1,3.2.8,2.5,2.5,0,0,1,1,2,2.5,2.5,0,0,1-.6,1.7,3.2,3.2,0,0,1-1.7,1Zm0-5.1v4.5h0.4a1.8,1.8,0,0,0,1.4-.6,2.5,2.5,0,0,0,.5-1.7,2.4,2.4,0,0,0-.5-1.7,2,2,0,0,0-1.5-.5H90Z" transform="translate(-3.3 -1.4)" style="fill:#304fa2"/><path d="M99.5,113.6v2.9a3.2,3.2,0,0,0,.1,1.1l0.4,0.3h1v0.3H95.6v-0.3h1l0.4-.3a3.2,3.2,0,0,0,.1-1.1v-6.7a3.2,3.2,0,0,0-.1-1.1l-0.4-.3h-1V108h4.8a10.5,10.5,0,0,1,2.7.3,2.8,2.8,0,0,1,1.4,1,2.6,2.6,0,0,1,.5,1.6,2.4,2.4,0,0,1-.8,1.9,3.4,3.4,0,0,1-1.5.7l2.5,3.5,0.7,0.8,0.7,0.3v0.3h-3.3l-3.3-4.7H99.5Zm0-5.1v4.5h0.4l1.6-.2a1.6,1.6,0,0,0,.8-0.7,2.6,2.6,0,0,0,.3-1.3,2,2,0,0,0-2.3-2.3H99.5Z" transform="translate(-3.3 -1.4)" style="fill:#304fa2"/><path d="M112.7,107.8a5.1,5.1,0,0,1,5.6,5.3,5.5,5.5,0,0,1-1.2,3.5,5.1,5.1,0,0,1-4.3,2,5.2,5.2,0,0,1-4.3-1.9,5.5,5.5,0,0,1-1.2-3.6,5.2,5.2,0,0,1,1.6-3.8A5,5,0,0,1,112.7,107.8Zm0.1,0.5a2.3,2.3,0,0,0-2.2,1.5,7.8,7.8,0,0,0-.6,3.4,6.6,6.6,0,0,0,.9,3.9,2.1,2.1,0,0,0,1.8.9,2.2,2.2,0,0,0,1.3-.4,3.1,3.1,0,0,0,1-1.6,8.7,8.7,0,0,0,.4-2.8,9.3,9.3,0,0,0-.4-3.1,3,3,0,0,0-1-1.4A2.3,2.3,0,0,0,112.8,108.3Z" transform="translate(-3.3 -1.4)" style="fill:#304fa2"/><path d="M119,118.3v-0.3h1l0.4-.4a3.6,3.6,0,0,0,.1-1v-6.8a3.4,3.4,0,0,0-.1-1l-0.3-.3h-1V108h4.6a7.4,7.4,0,0,1,3,.5,4.4,4.4,0,0,1,2.1,1.9,6,6,0,0,1,.4,4.8,4.6,4.6,0,0,1-.9,1.5,4.5,4.5,0,0,1-1.3,1l-1.8.6H119Zm3.9-9.8v8.1a2.9,2.9,0,0,0,.1.8l0.2,0.2h0.6a2.3,2.3,0,0,0,1.9-.9,5.9,5.9,0,0,0,.9-3.7,6.9,6.9,0,0,0-.6-3.2,2.7,2.7,0,0,0-1.3-1.3A4.9,4.9,0,0,0,123,108.6Z" transform="translate(-3.3 -1.4)" style="fill:#304fa2"/><path d="M130.5,108h5.3v0.3h-1.1l-0.3.3a3.7,3.7,0,0,0-.1,1.1v5.1a5.2,5.2,0,0,0,.2,1.8,1.7,1.7,0,0,0,.7.7,2.3,2.3,0,0,0,1.2.3,2.6,2.6,0,0,0,1.4-.4,2.3,2.3,0,0,0,.9-1,6.3,6.3,0,0,0,.3-2.3v-4.2a2.4,2.4,0,0,0-.1-1l-0.4-.4-1-.2V108h3.6v0.3h-0.2l-0.7.2a1,1,0,0,0-.4.5,2.6,2.6,0,0,0-.1.9v3.9a10.2,10.2,0,0,1-.2,2.6,2.9,2.9,0,0,1-1.2,1.5,4.2,4.2,0,0,1-2.5.7,4.8,4.8,0,0,1-2.1-.4,3.1,3.1,0,0,1-1.4-1.3,4.3,4.3,0,0,1-.4-2.1v-5.1a3.6,3.6,0,0,0-.1-1.1l-0.3-.3h-0.9V108Z" transform="translate(-3.3 -1.4)" style="fill:#304fa2"/><path d="M151.8,107.8v3.6h-0.3a3.8,3.8,0,0,0-1.3-2.2,3.2,3.2,0,0,0-2.1-.7,3.1,3.1,0,0,0-1.8.6,3.3,3.3,0,0,0-1.2,1.5,6.6,6.6,0,0,0-.5,2.6,8.6,8.6,0,0,0,.4,2.5,3.4,3.4,0,0,0,1.1,1.7,3.1,3.1,0,0,0,1.9.6,3.8,3.8,0,0,0,1.8-.4,6.2,6.2,0,0,0,1.7-1.5v0.9a5.7,5.7,0,0,1-1.8,1.3,5.5,5.5,0,0,1-2.2.4,6.3,6.3,0,0,1-2.9-.7,4.7,4.7,0,0,1-2-1.9,5.3,5.3,0,0,1-.7-2.7,5.7,5.7,0,0,1,2.9-4.9,5.7,5.7,0,0,1,2.8-.7,6.3,6.3,0,0,1,2.3.5l0.9,0.3,0.4-.2a1,1,0,0,0,.2-0.6h0.3Z" transform="translate(-3.3 -1.4)" style="fill:#304fa2"/><path d="M157,108.6v4.2h0.2a1.6,1.6,0,0,0,1.4-.6,3.8,3.8,0,0,0,.6-1.8h0.3v5.4h-0.3a4.1,4.1,0,0,0-.4-1.5,1.7,1.7,0,0,0-.7-0.8l-1.1-.2v2.9a4.2,4.2,0,0,0,.1,1l0.3,0.3h1.3a3.3,3.3,0,0,0,3.6-2.7h0.3l-0.5,3.3h-9v-0.3h0.3l0.7-.2,0.3-.4a3.1,3.1,0,0,0,.1-1v-6.8a5.4,5.4,0,0,0,0-.9,0.7,0.7,0,0,0-.3-0.4l-0.8-.2H153V108h8.7v3.1h-0.3a3.7,3.7,0,0,0-.6-1.6,2.3,2.3,0,0,0-1.1-.7H157Z" transform="translate(-3.3 -1.4)" style="fill:#304fa2"/><path d="M176.9,114.7l-0.4,3.6h-9.2v-0.3h0.3l0.7-.2,0.3-.4a3.2,3.2,0,0,0,.1-1v-6.8a3.4,3.4,0,0,0-.1-1l-0.3-.3h-1V108h5.5v0.3h-0.5l-0.7.2-0.3.4a3.1,3.1,0,0,0-.1,1v6.6a3.4,3.4,0,0,0,.1,1l0.4,0.3h1.8a2.9,2.9,0,0,0,1.4-.3,2.6,2.6,0,0,0,1-.9,7.4,7.4,0,0,0,.8-1.8h0.3Z" transform="translate(-3.3 -1.4)" style="fill:#304fa2"/><path d="M185.9,108v2.8h-0.3a4.4,4.4,0,0,0-.5-1.4,2.1,2.1,0,0,0-.8-0.7h-1.8v8a3.3,3.3,0,0,0,.1,1l0.3,0.3h1v0.3h-5.4v-0.3h0.3l0.7-.2,0.3-.4a3.1,3.1,0,0,0,.1-1v-8h-0.7a2.2,2.2,0,0,0-1.5.4,2.9,2.9,0,0,0-.8,1.8h-0.3V108h9.3Z" transform="translate(-3.3 -1.4)" style="fill:#304fa2"/><path d="M186.7,118.3v-0.3h1l0.4-.4a3.7,3.7,0,0,0,.1-1v-6.8a3.4,3.4,0,0,0-.1-1l-0.3-.3h-1V108h4.6a7.4,7.4,0,0,1,3,.5,4.4,4.4,0,0,1,2.1,1.9,6,6,0,0,1,.4,4.8,4.6,4.6,0,0,1-.9,1.5,4.5,4.5,0,0,1-1.3,1l-1.8.6h-6.1Zm3.9-9.8v8.1a2.9,2.9,0,0,0,.1.8l0.2,0.2h0.6a2.3,2.3,0,0,0,1.9-.9,5.9,5.9,0,0,0,.9-3.7,6.9,6.9,0,0,0-.6-3.2,2.7,2.7,0,0,0-1.3-1.3A4.9,4.9,0,0,0,190.6,108.6Z" transform="translate(-3.3 -1.4)" style="fill:#304fa2"/><path d="M199.7,116a1.3,1.3,0,1,1-.9.4A1.2,1.2,0,0,1,199.7,116Z" transform="translate(-3.3 -1.4)" style="fill:#304fa2"/><ellipse cx="140.7" cy="70.5" rx="140" ry="69.8" style="fill:none;stroke:#ffc425;stroke-miterlimit:10;stroke-width:1.4582256126554582px"/><path d="M280.9,71.4c0-36-61.9-66.2-136.9-66.2S7,35.3,7,72s62,66.8,137,66.8S280.9,108.6,280.9,71.4Z" transform="translate(-3.3 -1.4)" style="fill:none;stroke:#304fa2;stroke-miterlimit:10;stroke-width:4.874481086167793px"/><path d="M21,92.6V91.3h6.4V52.7H21V51.3H42.4a41.9,41.9,0,0,1,5.9.4,11.3,11.3,0,0,1,4.6,1.8,8.6,8.6,0,0,1,3.2,3.6,10.1,10.1,0,0,1,1,4.1c0,4.9-3.8,8.1-11.3,9.6H45.7v0.3h0.1c8.5,1.4,12.7,4.9,12.7,10.6a10.1,10.1,0,0,1-1.1,4.4,10.4,10.4,0,0,1-3.6,4,12.6,12.6,0,0,1-5.1,2.1,43.1,43.1,0,0,1-6.6.4H21Zm13.6-1.4h5.9a21.9,21.9,0,0,0,5.2-.5,5.7,5.7,0,0,0,3.4-2.7c0.9-1.4,1.4-3.7,1.4-6.8s-0.7-5.7-2.1-7.2-4.1-2.3-8-2.3H34.6V91.3Zm0-20.9h5.8c3.9,0,6.4-.8,7.5-2.3s1.6-3.9,1.6-7.2a11.2,11.2,0,0,0-1.1-5.6,4.4,4.4,0,0,0-2.7-2.2,21.4,21.4,0,0,0-4.7-.4H34.6V70.3Z" transform="translate(-3.3 -1.4)" style="fill:#ed1b32"/><path d="M42.4,51.4a41.8,41.8,0,0,1,5.9.4,11.2,11.2,0,0,1,4.6,1.8A8.5,8.5,0,0,1,56,57.2a10,10,0,0,1,1,4.1c0,4.8-3.8,8-11.2,9.5H45.6v0.5h0.2c8.4,1.4,12.7,4.9,12.7,10.5a10,10,0,0,1-1.1,4.4,10.3,10.3,0,0,1-3.6,4,12.5,12.5,0,0,1-5,2.1,43,43,0,0,1-6.5.4h-21V91.4h6.4V52.6H21.1V51.4H42.4m-7.9,19h5.9c3.9,0,6.5-.8,7.6-2.3s1.6-4,1.6-7.2a11.3,11.3,0,0,0-1.1-5.6A4.5,4.5,0,0,0,45.7,53a21.5,21.5,0,0,0-4.7-.4H34.5V70.4m0,20.9h6a22,22,0,0,0,5.2-.5,5.8,5.8,0,0,0,3.4-2.7c0.9-1.5,1.4-3.8,1.4-6.9s-0.7-5.8-2.1-7.3-4.1-2.3-8.1-2.3H34.5V91.4m7.9-40.1H20.9v1.6h6.4V91.2H20.9v1.6H42.1a42.9,42.9,0,0,0,6.6-.4,12.7,12.7,0,0,0,5.1-2.1,10.5,10.5,0,0,0,3.7-4,10.1,10.1,0,0,0,1.1-4.4q0-8.6-12.8-10.7V70.9q11.4-2.3,11.4-9.7a10.2,10.2,0,0,0-1-4.1A8.6,8.6,0,0,0,53,53.4a11.3,11.3,0,0,0-4.6-1.8,41.8,41.8,0,0,0-5.9-.4h0Zm-7.7,19V52.8H41a21.2,21.2,0,0,1,4.6.4,4.3,4.3,0,0,1,2.7,2.1,11.1,11.1,0,0,1,1.1,5.5q0,4.9-1.6,7.1t-7.4,2.3H34.7Zm0,20.9V71.8h5.6q5.9,0,8,2.3t2.1,7.2q0,4.6-1.4,6.8a5.6,5.6,0,0,1-3.3,2.6,21.7,21.7,0,0,1-5.2.5H34.7Z" transform="translate(-3.3 -1.4)" style="fill:#304fa2"/><path d="M42.4,51.2a41.8,41.8,0,0,1,5.9.4A11.3,11.3,0,0,1,53,53.4a8.6,8.6,0,0,1,3.2,3.7,10.2,10.2,0,0,1,1,4.1q0,7.4-11.4,9.7v0.2q12.8,2.1,12.8,10.7a10.1,10.1,0,0,1-1.1,4.4,10.5,10.5,0,0,1-3.7,4,12.7,12.7,0,0,1-5.1,2.1,42.9,42.9,0,0,1-6.6.4H20.9V91.2h6.4V52.8H20.9V51.2H42.4m-7.7,19h5.7q5.8,0,7.4-2.3t1.6-7.1a11.1,11.1,0,0,0-1.1-5.5,4.3,4.3,0,0,0-2.7-2.1,21.2,21.2,0,0,0-4.6-.4H34.7V70.2m0,20.9h5.8a21.7,21.7,0,0,0,5.2-.5A5.6,5.6,0,0,0,49,88q1.4-2.2,1.4-6.8t-2.1-7.2q-2.1-2.3-8-2.3H34.7V91.2m7.7-40.9H19.9v3.5h6.4V90.2H19.9v3.5H42.1a44.1,44.1,0,0,0,6.7-.4A13.7,13.7,0,0,0,54.3,91a11.5,11.5,0,0,0,4-4.4,11.1,11.1,0,0,0,1.2-4.9c0-5.3-3.3-9-10-10.8,5.6-1.9,8.5-5.1,8.5-9.7A11.2,11.2,0,0,0,57,56.7a9.6,9.6,0,0,0-3.6-4.1,12.3,12.3,0,0,0-5-2,42.9,42.9,0,0,0-6.1-.4h0Zm-6.7,3.5H41a20.4,20.4,0,0,1,4.4.4,3.3,3.3,0,0,1,2.1,1.7,10.3,10.3,0,0,1,.9,5c0,3-.5,5.2-1.4,6.6s-3.1,1.9-6.6,1.9H35.7V53.8h0Zm0,19h4.7c3.6,0,6.1.7,7.3,1.9s1.8,3.5,1.8,6.5-0.4,5-1.2,6.2a4.6,4.6,0,0,1-2.7,2.2,20.9,20.9,0,0,1-4.9.5H35.7V72.8h0Z" transform="translate(-3.3 -1.4)" style="fill:#89a5d5"/><path d="M81.2,93.6c-4.5,0-7.8-.7-9.9-2.1a8.7,8.7,0,0,1-3.8-5.2,38.6,38.6,0,0,1-.7-8.4V52.7h-6V51.3H80.3v1.4H73.8V77.2a52.9,52.9,0,0,0,.5,7.9A8.3,8.3,0,0,0,76.8,90c1.4,1.3,3.6,1.9,6.5,1.9a14,14,0,0,0,6.5-1.5,8.5,8.5,0,0,0,4-4c0.8-1.7,1.1-4.8,1.1-9.3V52.7H88.2V51.3h14.6v1.4H96.3V77.9a29,29,0,0,1-.8,8,9,9,0,0,1-3,4.3,13.6,13.6,0,0,1-5.1,2.6A24.1,24.1,0,0,1,81.2,93.6Z" transform="translate(-3.3 -1.4)" style="fill:#ed1b32"/><path d="M102.7,51.4v1.2H96.2V77.9a28.9,28.9,0,0,1-.8,8,8.9,8.9,0,0,1-2.9,4.3,13.5,13.5,0,0,1-5.1,2.5,24,24,0,0,1-6.2.8c-4.5,0-7.8-.7-9.9-2.1a8.6,8.6,0,0,1-3.8-5.1,38.5,38.5,0,0,1-.7-8.3V52.6h-6V51.4H80.2v1.2H73.7V77.2a53,53,0,0,0,.5,8,8.4,8.4,0,0,0,2.6,4.9c1.4,1.3,3.6,2,6.6,2a14.1,14.1,0,0,0,6.5-1.5,8.6,8.6,0,0,0,4.1-4c0.8-1.7,1.1-4.8,1.1-9.3V52.6H88.3V51.4h14.4m0.2-.2H88.1v1.6h6.8V77.2q0,6.8-1.1,9.2a8.4,8.4,0,0,1-4,3.9,13.8,13.8,0,0,1-6.4,1.5q-4.4,0-6.5-1.9a8.2,8.2,0,0,1-2.5-4.8,52.5,52.5,0,0,1-.5-7.9V52.8h6.5V51.2H60.6v1.6h6V77.9a38.5,38.5,0,0,0,.7,8.4,8.7,8.7,0,0,0,3.9,5.3q3.2,2.1,10,2.1a24.1,24.1,0,0,0,6.2-.8,13.7,13.7,0,0,0,5.2-2.6,9,9,0,0,0,3-4.4,28.9,28.9,0,0,0,.8-8.1V52.8h6.5V51.2h0Z" transform="translate(-3.3 -1.4)" style="fill:#304fa2"/><path d="M102.9,51.2v1.6H96.4V77.9a28.9,28.9,0,0,1-.8,8.1,9,9,0,0,1-3,4.4,13.7,13.7,0,0,1-5.2,2.6,24.1,24.1,0,0,1-6.2.8q-6.8,0-10-2.1a8.7,8.7,0,0,1-3.9-5.3,38.5,38.5,0,0,1-.7-8.4V52.8h-6V51.2H80.4v1.6H73.9V77.2a52.5,52.5,0,0,0,.5,7.9,8.2,8.2,0,0,0,2.5,4.8q2,1.9,6.5,1.9a13.8,13.8,0,0,0,6.4-1.5,8.4,8.4,0,0,0,4-3.9q1.1-2.5,1.1-9.2V52.8H88.1V51.2h14.8m1-1H87.1v3.5h6.8V77.2c0,4.3-.4,7.3-1,8.8a7.4,7.4,0,0,1-3.5,3.5,12.9,12.9,0,0,1-6,1.4c-2.7,0-4.6-.6-5.8-1.7A7.2,7.2,0,0,1,75.3,85a51.9,51.9,0,0,1-.5-7.8V53.8h6.5V50.2H59.6v3.5h6V77.9a39.6,39.6,0,0,0,.8,8.6,9.7,9.7,0,0,0,4.3,5.8c2.3,1.5,5.7,2.3,10.5,2.3a25.2,25.2,0,0,0,6.5-.8,14.7,14.7,0,0,0,5.5-2.8,10,10,0,0,0,3.3-4.8,29.5,29.5,0,0,0,.9-8.3V53.8h6.5V50.2h0Z" transform="translate(-3.3 -1.4)" style="fill:#89a5d5"/><path d="M143.2,93.1c-3.4,0-5.8-.9-7.1-2.8a9,9,0,0,1-2-5.5V79.5a10,10,0,0,0-1.8-5.5c-1.2-1.8-3.9-2.7-8-2.7h-4V91.3H127v1.4H106.7V91.3h6.5V52.7h-6.5V51.3h22.7a28.8,28.8,0,0,1,7.3.8,9.7,9.7,0,0,1,4.9,3.2,8.3,8.3,0,0,1,2.1,5.5,7.7,7.7,0,0,1-3,6.3c-2,1.6-5.4,2.8-10.2,3.7h-0.1v0.3h0.1a17.7,17.7,0,0,1,8.5,3.9c2.2,1.9,3.3,5.3,3.3,9.9,0,2.7.3,4.4,1,5.2a3.3,3.3,0,0,0,2.7,1.2,9.6,9.6,0,0,0,2.5-.4v1.3A15.8,15.8,0,0,1,143.2,93.1ZM120.4,70.1h5.7a23.9,23.9,0,0,0,5.5-.5,4.9,4.9,0,0,0,3.1-2.6c0.8-1.4,1.1-3.5,1.1-6.5a9.7,9.7,0,0,0-1.2-5.3,4.8,4.8,0,0,0-2.8-2.1,19.2,19.2,0,0,0-4.3-.4h-7.1V70.1Z" transform="translate(-3.3 -1.4)" style="fill:#ed1b32"/><path d="M129.4,51.4a28.7,28.7,0,0,1,7.3.8,9.6,9.6,0,0,1,4.8,3.1,8.2,8.2,0,0,1,2,5.5,7.7,7.7,0,0,1-3,6.2c-2,1.6-5.4,2.8-10.2,3.6h-0.2v0.5h0.2a17.6,17.6,0,0,1,8.4,3.9c2.2,1.9,3.3,5.2,3.3,9.8,0,2.8.3,4.5,1,5.3a3.4,3.4,0,0,0,2.8,1.2,9.5,9.5,0,0,0,2.4-.4v1.1a15.7,15.7,0,0,1-5,.9c-3.3,0-5.7-.9-7.1-2.8a8.9,8.9,0,0,1-2-5.5V79.5a10.1,10.1,0,0,0-1.8-5.5c-1.2-1.8-3.9-2.8-8.1-2.8h-4.1V91.4h6.5v1.2h-20V91.4h6.5V52.6h-6.5V51.4h22.6m-9.1,18.8h5.8a24,24,0,0,0,5.5-.5,5,5,0,0,0,3.1-2.6c0.8-1.4,1.2-3.6,1.2-6.6a9.8,9.8,0,0,0-1.2-5.4,4.9,4.9,0,0,0-2.9-2.1,19.3,19.3,0,0,0-4.3-.4h-7.2V70.2m9.1-19H106.6v1.6h6.5V91.2h-6.5v1.6h20.4V91.2h-6.5V71.4h3.9q6.2,0,7.9,2.7a9.8,9.8,0,0,1,1.7,5.4v5.3a9,9,0,0,0,2,5.6q2.1,2.8,7.2,2.8a15.9,15.9,0,0,0,5.2-.9V90.8a9.7,9.7,0,0,1-2.6.4,3.2,3.2,0,0,1-2.6-1.1q-0.9-1.1-.9-5.2,0-7-3.3-10a17.8,17.8,0,0,0-8.5-4V70.8q7.2-1.2,10.3-3.7a7.8,7.8,0,0,0,3-6.4,8.4,8.4,0,0,0-2.1-5.6,9.8,9.8,0,0,0-4.9-3.2,28.7,28.7,0,0,0-7.3-.8h0ZM120.5,70V52.8h7a19,19,0,0,1,4.3.4,4.7,4.7,0,0,1,2.8,2.1,9.6,9.6,0,0,1,1.1,5.3q0,4.4-1.1,6.5a4.8,4.8,0,0,1-3,2.5,23.7,23.7,0,0,1-5.5.5h-5.6Z" transform="translate(-3.3 -1.4)" style="fill:#304fa2"/><path d="M129.4,51.2a28.7,28.7,0,0,1,7.3.8,9.8,9.8,0,0,1,4.9,3.2,8.4,8.4,0,0,1,2.1,5.6,7.8,7.8,0,0,1-3,6.4q-3,2.4-10.3,3.7V71a17.8,17.8,0,0,1,8.5,4q3.3,2.9,3.3,10,0,4,.9,5.2a3.2,3.2,0,0,0,2.6,1.1,9.7,9.7,0,0,0,2.6-.4v1.5a15.9,15.9,0,0,1-5.2.9q-5.1,0-7.2-2.8a9,9,0,0,1-2-5.6V79.5a9.8,9.8,0,0,0-1.7-5.4q-1.8-2.7-7.9-2.7h-3.9V91.2h6.5v1.6H106.6V91.2h6.5V52.8h-6.5V51.2h22.8M120.5,70h5.6a23.7,23.7,0,0,0,5.5-.5,4.8,4.8,0,0,0,3-2.5q1.1-2,1.1-6.5a9.6,9.6,0,0,0-1.1-5.3,4.7,4.7,0,0,0-2.8-2.1,19,19,0,0,0-4.3-.4h-7V70m8.9-19.7H105.6v3.5h6.5V90.2h-6.5v3.5H128V90.2h-6.5V72.4h2.9c3.8,0,6.2.8,7.1,2.2a8.9,8.9,0,0,1,1.6,4.9v5.2a10,10,0,0,0,2.2,6.2c1.6,2.2,4.3,3.2,8,3.2a17,17,0,0,0,5.5-1l0.7-.2V89.5l-1.2.4a8.8,8.8,0,0,1-2.3.4,2.3,2.3,0,0,1-1.9-.8c-0.2-.3-0.7-1.2-0.7-4.5,0-5-1.2-8.6-3.7-10.7a17.2,17.2,0,0,0-5.4-3.2,18.6,18.6,0,0,0,7.1-3.1,8.8,8.8,0,0,0,3.4-7.1,9.3,9.3,0,0,0-2.3-6.2,10.8,10.8,0,0,0-5.4-3.5,29.8,29.8,0,0,0-7.6-.8h0Zm-7.9,3.5h6.1a18.2,18.2,0,0,1,4,.4,3.7,3.7,0,0,1,2.2,1.7,8.7,8.7,0,0,1,1,4.7c0,2.8-.3,4.8-1,6a3.8,3.8,0,0,1-2.4,2,22.9,22.9,0,0,1-5.2.4h-4.6V53.8h0Z" transform="translate(-3.3 -1.4)" style="fill:#89a5d5"/><polygon points="183.5 92.2 156.2 51.1 156 51.1 155.9 51.1 155.9 89.8 162.9 89.8 162.9 91.2 148.4 91.2 148.4 89.8 154.5 89.8 154.5 51.3 147.9 51.3 147.9 49.9 163.7 49.9 183 78.9 183.2 79 183.3 79 183.3 51.3 176.4 51.3 176.4 49.9 190.9 49.9 190.9 51.3 184.6 51.3 184.6 92.2 183.5 92.2" style="fill:#ed1b32"/><path d="M194.1,51.4v1.2h-6.3V93.5h-1l-27.3-41h-0.5V91.4h7v1.2H151.7V91.4h6.2V52.6h-6.6V51.4h15.6l19.3,29h0.5V52.6h-6.9V51.4h14.4m0.2-.2H179.6v1.6h6.9V80.3h-0.1L167,51.2H151.1v1.6h6.6V91.2h-6.2v1.6h14.8V91.2h-7V52.6h0.1l27.3,41.1H188V52.8h6.3V51.2h0Z" transform="translate(-3.3 -1.4)" style="fill:#304fa2"/><path d="M194.3,51.2v1.6H188V93.7h-1.3L159.4,52.6h-0.1V91.2h7v1.6H151.5V91.2h6.2V52.8h-6.6V51.2H167l19.4,29.1h0.1V52.8h-6.9V51.2h14.7m1-1H178.6v3.5h6.9V77.3L167.8,50.7l-0.3-.4H150.1v3.5h6.6V90.2h-6.2v3.5h16.7V90.2h-7V55.6l25.7,38.6,0.3,0.4H189V53.8h6.3V50.2h0Z" transform="translate(-3.3 -1.4)" style="fill:#89a5d5"/><path d="M215.8,92.6V91.3h6.8l-4.1-11.6H205.1l-4.3,11.6h7.7v1.4H193.7V91.3h5.7l15.1-40.9h0.8l14.5,40.9h5.5v1.4H215.8ZM205.6,78.3H218L212,61.5h-0.3Z" transform="translate(-3.3 -1.4)" style="fill:#ed1b32"/><path d="M215.3,50.5l14.5,40.8h5.6v1.2H215.9V91.4h6.8V91.1l-4.1-11.4H205l-4.2,11.4v0.3h7.8v1.2H193.8V91.4h5.7l15.1-40.8h0.7m-9.8,28h12.6V78.2l-5.9-16.6h-0.5l-6.1,16.6v0.3m9.9-28.2h-1L199.3,91.2h-5.7v1.6h15V91.2h-7.7l4.2-11.4h13.2l4.1,11.4h-6.7v1.6h19.8V91.2h-5.6L215.4,50.3h0Zm-9.6,28,6.1-16.6H212l5.9,16.6h-12Z" transform="translate(-3.3 -1.4)" style="fill:#304fa2"/><path d="M215.4,50.3l14.5,40.9h5.6v1.6H215.7V91.2h6.7l-4.1-11.4H205.2l-4.2,11.4h7.7v1.6h-15V91.2h5.7l15.1-40.9h1m-9.6,28h12L212,61.6h-0.1l-6.1,16.6m10.3-28.9h-2.3l-0.2.6L198.6,90.2h-6v3.5h17V90.2h-7.3l3.5-9.4h11.8l3.4,9.4h-6.3v3.5h21.7V90.2h-5.9L216.3,49.9l-0.2-.6h0Zm-8.9,28,4.7-12.9,4.6,12.9h-9.3Z" transform="translate(-3.3 -1.4)" style="fill:#89a5d5"/><path d="M253.6,93.6c-5,0-9.6-2.1-13.7-6.2a20.7,20.7,0,0,1-6.2-15.2,21.7,21.7,0,0,1,6.1-15.5,19.1,19.1,0,0,1,14.1-6.4,16.8,16.8,0,0,1,10.9,3.8h0.1a24.2,24.2,0,0,0,2.1-3.3h1.4V63H267c-1.7-7.5-6-11.2-13-11.2-3.7,0-6.5,1.3-8.2,3.9s-2.6,8-2.6,16.1,0.4,11.3,1.1,13.7a8.6,8.6,0,0,0,3.9,5.2,12,12,0,0,0,6,1.6,13.3,13.3,0,0,0,8.1-2.8c2.5-1.9,4.5-4.9,5.8-9h1.5l-0.6,12.5h-1.3a8.3,8.3,0,0,0-2.6-3.3h-0.1A19.6,19.6,0,0,1,253.6,93.6Z" transform="translate(-3.3 -1.4)" style="fill:#ed1b32"/><path d="M253.8,50.5a16.7,16.7,0,0,1,10.8,3.8h0.2V54.2a24.6,24.6,0,0,0,2.1-3.3h1.2V62.9H267c-1.7-7.5-6.1-11.2-13-11.2-3.8,0-6.6,1.3-8.3,3.9s-2.6,8-2.6,16.1,0.4,11.3,1.1,13.7a8.7,8.7,0,0,0,3.9,5.3,12.1,12.1,0,0,0,6.1,1.6,13.4,13.4,0,0,0,8.1-2.8c2.5-1.9,4.5-4.9,5.8-9h1.3L269,92.8h-1.1a8.4,8.4,0,0,0-2.6-3.3H265a19.5,19.5,0,0,1-11.5,4c-5,0-9.5-2.1-13.6-6.2a20.6,20.6,0,0,1-6.2-15.1,21.6,21.6,0,0,1,6.1-15.5,19,19,0,0,1,14-6.3m0-.2q-8,0-14.2,6.4a21.7,21.7,0,0,0-6.1,15.6,20.7,20.7,0,0,0,6.2,15.2q6.2,6.2,13.8,6.2a19.6,19.6,0,0,0,11.6-4.1,8.1,8.1,0,0,1,2.6,3.3h1.5l0.6-12.7h-1.7q-2.1,6.2-5.8,9a13.2,13.2,0,0,1-8,2.8,11.8,11.8,0,0,1-6-1.6,8.5,8.5,0,0,1-3.8-5.2q-1.1-3.6-1.1-13.7,0-12.2,2.6-16t8.2-3.8q10.4,0,12.9,11.2h1.5V50.8h-1.5a23.8,23.8,0,0,1-2.1,3.4,16.8,16.8,0,0,0-10.9-3.9h0Z" transform="translate(-3.3 -1.4)" style="fill:#304fa2"/><path d="M253.8,50.3a16.8,16.8,0,0,1,10.9,3.9,23.8,23.8,0,0,0,2.1-3.4h1.5V63.1h-1.5Q264.4,51.8,254,51.8q-5.6,0-8.2,3.8t-2.6,16q0,10.1,1.1,13.7a8.5,8.5,0,0,0,3.8,5.2,11.8,11.8,0,0,0,6,1.6,13.2,13.2,0,0,0,8-2.8q3.8-2.8,5.8-9h1.7L269.2,93h-1.5a8.1,8.1,0,0,0-2.6-3.3,19.6,19.6,0,0,1-11.6,4.1q-7.5,0-13.8-6.2a20.7,20.7,0,0,1-6.2-15.2,21.7,21.7,0,0,1,6.1-15.6q6.1-6.4,14.2-6.4m0-1A20.1,20.1,0,0,0,239,56a22.7,22.7,0,0,0-6.4,16.3,21.7,21.7,0,0,0,6.5,15.9c4.3,4.3,9.2,6.5,14.5,6.5a20.3,20.3,0,0,0,11.5-3.8,7,7,0,0,1,1.7,2.5L267,94h3V93l0.6-12.7v-1h-3.4l-0.2.7c-1.3,3.9-3.2,6.8-5.5,8.5a12.3,12.3,0,0,1-7.4,2.6,10.9,10.9,0,0,1-5.5-1.4,7.5,7.5,0,0,1-3.4-4.6c-0.7-2.3-1.1-6.8-1.1-13.4s0.8-13.1,2.4-15.5,3.9-3.4,7.3-3.4c6.5,0,10.4,3.4,11.9,10.5l0.2,0.8h3.3V49.8h-3.1l-0.3.5a20.1,20.1,0,0,1-1.4,2.4,17.8,17.8,0,0,0-10.7-3.5h0Z" transform="translate(-3.3 -1.4)" style="fill:#89a5d5"/><path d="M278.6,72c0-34.1-57.3-64.2-134.6-64.2S9.4,38.6,9.4,72,66.7,136.4,144,136.4,278.6,104.8,278.6,72Z" transform="translate(-3.3 -1.4)" style="fill:none;stroke:#ffc425;stroke-miterlimit:10;stroke-width:1.4582256126554582px"/></svg>